<svg width="1751" height="81" viewBox="0 0 1751 81" fill="none" xmlns="http://www.w3.org/2000/svg">
<path d="M2 42.3728C14.0157 27.882 55.0796 2.07266 74.6628 20.5235C84.6473 29.9306 90.2699 41.6133 100.945 51.1125C109.612 58.8246 130.387 60.2514 141.829 59.8522C154.915 59.3955 165.892 50.0555 173.436 40.9162C182.722 29.6679 198.759 29.883 212.258 26.35C231.66 21.2722 243.766 17.342 262.418 24.246C276.387 29.4164 288.131 38.8615 301.927 44.6386C333.683 57.9362 387.145 47.9744 414.615 30.7198C428.323 22.1094 437.971 10.3272 455.842 10.3272C485.47 10.3272 501.531 35.247 520.775 53.3783C523.646 56.0837 527.751 64.0537 532.456 62.4417C545.292 58.0438 552.201 43.7814 563.204 36.87C575.89 28.9018 597.157 18.7778 612.162 22.4657C643.375 30.1373 674.821 38.4211 706.64 43.6676C719.591 45.8028 741.903 49.2083 752.677 40.1069C759.817 34.0764 761.061 24.0801 769.512 19.0669C794.411 4.29644 824.594 55.9389 852.997 50.4651C894.355 42.4946 933.052 16.3171 976.335 27.9685C991.262 31.9868 1009.04 39.4595 1024.78 39.4595C1034.57 39.4595 1041.02 30.7198 1050.89 30.7198C1064.91 30.7198 1074.96 36.9367 1087.3 41.7254C1092.1 43.5864 1088.38 29.811 1094.86 28.454C1109.49 25.3916 1126.09 35.7192 1138.15 42.2109C1148.07 47.5523 1155.34 41.2694 1166.32 42.6965C1184.71 45.0864 1204.04 57.7454 1223.35 53.702C1236.29 50.9934 1241.86 40.3634 1257.19 38.1648C1272.94 35.9073 1277.5 34.2729 1283.82 19.7143C1286.39 13.7908 1285.78 -1.86142 1295.84 2.88226C1305.47 7.41491 1308.03 13.2404 1319.21 13.2404C1327.61 13.2404 1336.25 12.6765 1344.63 13.2404C1355.72 13.987 1364.35 28.5613 1370.05 36.3845C1377.22 46.1995 1396.06 56.5666 1406.81 63.251C1418.07 70.2447 1456.73 87.6689 1467.45 73.771C1477.18 61.1691 1474.04 40.2665 1487.89 29.5869C1500.18 20.1155 1527.9 60.7397 1548.02 51.7599C1562.93 45.1068 1570.82 38.7805 1576.53 22.6275C1581.4 8.8848 1613.86 35.4296 1628.41 33.4712C1636.86 32.3336 1641.69 27.8066 1651.43 27.8066C1658.24 27.8066 1665.06 27.8066 1671.87 27.8066C1685.33 27.8066 1707.68 27.7918 1720.48 31.3672C1731.64 34.4827 1736.8 42.3728 1749 42.3728" stroke="black" stroke-width="4" stroke-linecap="round" stroke-linejoin="round"/>
</svg>
