<?xml version="1.0" encoding="UTF-8"?>
<svg width="573px" height="125px" viewBox="0 0 573 125" version="1.1"
	xmlns="http://www.w3.org/2000/svg" xmlns:xlink="http://www.w3.org/1999/xlink">
	<!-- Generator: Sketch 43.1 (39012) - http://www.bohemiancoding.com/sketch -->
	<title>Slice 1</title>
	<desc>Created with Sketch.</desc>
	<defs></defs>
	<g id="Page-1" stroke="none" stroke-width="1" fill="none" fill-rule="evenodd">
		<g id="title" transform="translate(1.000000, 0.000000)" fill-rule="nonzero" fill="#000000">
			<path
				d="M123.771,42.626 C134.101,36.03 147.284,31.036 159.637,29.301 C162.188,28.943 167.454,28.436 168.243,31.714 C168.672,33.495 167.866,35.759 165.801,36.082 C163.024,36.516 160.497,36.422 157.675,37.088 C152.889,38.218 120.171,45.759 131.174,54.432 C133.606,56.349 137.16,56.952 140.149,57.615 C144.003,58.47 147.917,59.043 151.826,59.606 C159.251,60.675 166.767,61.75 173.72,64.594 C175.377,60.141 175.748,55.359 176.483,50.717 C176.961,47.699 177.741,44.74 178.291,41.733 C178.84,38.735 179.399,35.729 180.213,32.785 C180.699,31.029 181.318,27.802 183.168,26.803 C185.115,25.751 188.154,27.213 188.72,29.135 C189.449,31.611 188.325,34.494 187.432,36.794 C184.308,44.837 181.712,52.903 181.66,61.588 C186.428,56.082 186.75,47.764 192.754,43.117 C196.735,40.035 203.408,28.204 210.044,32.725 C213.305,34.947 207.815,37.851 206.29,39.018 C202.838,41.659 199.863,44.858 197.272,48.268 C192.85,54.087 189.815,60.546 187.683,67.414 C186.067,72.622 184.13,80.265 188.658,84.708 C191.231,87.232 195.137,87.676 198.644,87.613 C201.94,87.554 206.158,87.499 209.254,86.293 C211.176,85.544 210.458,83.515 210.092,82.012 C209.077,77.844 208.64,73.76 209.042,69.485 C209.867,60.717 213.112,52.15 216.794,44.141 C218.743,39.901 221.516,34.464 225.898,32.052 C229.5,30.07 234.868,31.855 238.812,31.89 C244.711,31.942 250.336,34.77 254.662,38.447 C256.293,39.834 257.583,41.337 258.69,43.113 C259.153,43.855 260.457,46.546 261.648,46.401 C262.821,41.908 262.859,36.952 265.434,32.88 C266.895,30.57 268.203,30.983 270.645,30.705 C274.736,30.239 278.157,27.922 282.372,27.822 C289.849,27.644 298.161,30.736 302.191,37.013 C305.511,42.184 305.41,48.623 303.209,54.153 C300.416,61.168 294.445,66.862 287.579,70.374 C283.788,72.313 279.705,73.654 275.422,74.137 C273.257,74.381 266.002,73.515 266.44,76.78 C266.794,79.415 267.002,82.092 268.041,84.577 C268.909,86.654 269.834,88.712 270.555,90.841 C271.788,94.481 272.157,99.042 266.73,96.579 C259.648,93.366 261.613,82.989 259.165,77.19 C255.837,82.51 252.058,88.061 246.58,91.591 C244.222,93.11 241.288,94.824 238.599,95.739 C234.852,97.015 230.454,95.756 226.779,94.795 C218.526,92.638 211.055,93.443 202.657,93.567 C195.434,93.673 188.947,91.61 182.8,88.067 C182.251,91.557 189.129,101.718 180.501,101.99 C174.969,102.164 175.536,92.107 174.623,88.48 C166.421,91.964 158.001,95.73 148.841,96.335 C140.049,96.916 131.187,94.273 122.602,92.809 C119.064,92.206 114.888,93.224 111.69,91.655 C110.566,91.104 109.273,90.324 107.965,90.783 C105.833,91.531 103.867,93.225 101.8,94.193 C93.854,97.916 84.368,99.35 76.44,94.807 C74.815,93.876 73.308,92.888 72.069,91.51 C70.971,90.288 69.937,88.813 68.43,88.009 C65.285,86.332 60.804,89.022 57.822,89.952 C53.125,91.416 48.173,92.256 43.399,93.474 C38.402,94.749 31.988,97.514 26.801,97.876 C17.919,98.495 10.816,93.803 5.523,86.832 C0.077,79.658 -0.443,69.549 0.247,61.04 C1.028,51.408 3.95,42.05 7.54,33.065 C9.076,29.221 10.45,25.274 12.037,21.461 C13.007,19.131 16.794,20.35 18.295,21.68 C22.168,25.11 16.894,32.86 15.182,36.184 C12.328,41.727 10.544,47.96 9.214,53.983 C6.615,65.753 5.355,86.614 21.93,89.452 C30.564,90.931 39.857,87.674 48.036,85.452 C52.704,84.184 57.478,82.98 62.03,81.372 C65.043,80.308 65.338,78.78 64.838,75.984 C63.35,67.657 63.926,57.757 66.563,49.683 C67.847,45.753 69.742,42.024 72.01,38.529 C73.746,35.854 76.596,29.949 80.775,31.195 C82.755,31.785 84.615,30.682 86.277,29.811 C88.185,28.811 90.249,28.076 92.352,27.543 C96.621,26.461 101.205,26.171 105.567,26.93 C109.76,27.66 113.903,29.388 116.919,32.321 C119.952,35.272 121.474,39.198 123.771,42.626 C124.107,42.489 124.36,42.277 124.53,41.989 C124.433,41.846 123.564,42.317 123.771,42.626 C134.035,36.072 123.45,42.147 123.771,42.626 Z M71.798,66.488 C72.105,73.357 72.555,82.146 77.628,87.575 C82.58,92.874 92.205,90.516 98.046,87.967 C110.778,82.409 116.533,67.638 117.954,55.219 C118.591,49.653 117.952,42.216 113.877,37.825 C108.236,31.745 97.087,32.432 89.97,35.133 C83.267,37.677 78.507,42.677 75.845,48.994 C74.589,51.975 73.761,55.106 73.126,58.256 C72.797,59.887 72.521,61.528 72.271,63.172 C72.114,64.203 71.284,66.57 71.891,67.536 C71.69,67.216 72.156,66.313 71.944,65.88 C71.892,65.769 71.759,66.777 71.798,66.488 C72.083,72.855 72.131,64.054 71.798,66.488 Z M215.682,72.375 C216.151,77.748 216.806,83.035 221.795,86.389 C227.092,89.951 234.676,90.922 240.104,87.111 C250.325,79.936 258.685,67.024 256.83,54.54 C255.36,44.645 243.614,33.012 232.572,38.404 C230.25,39.538 227.463,41.017 225.373,42.508 C222.836,44.317 221.864,48.96 220.722,51.67 C219.246,55.174 218.002,58.725 217.172,62.422 C216.766,64.23 216.443,66.056 216.187,67.889 C216.057,68.82 216.244,71.916 215.731,72.564 C216.209,71.961 215.635,70.75 215.924,70.108 C215.651,70.719 215.739,71.741 215.682,72.375 C216.218,78.512 216.192,66.607 215.682,72.375 Z M115.347,85.069 C125.165,89.322 136.846,90.703 147.521,89.828 C156.449,89.096 169.434,86.241 173.308,77.472 C178.118,66.586 157.431,66.25 150.673,65.447 C144.791,64.748 138.315,64.225 132.81,61.963 C132.111,61.676 125.812,59.044 125.916,58.613 C124.673,63.795 123.875,69.324 121.572,74.196 C120.539,76.382 119.268,78.453 118.004,80.522 C117.457,81.418 116.91,82.314 116.382,83.221 C116.027,83.83 115.681,84.446 115.347,85.069 C115.715,85.316 115.893,85.295 115.881,85.006 C115.694,84.8 115.516,84.821 115.347,85.069 C125.678,89.544 115.688,84.432 115.347,85.069 Z M265.642,63.774 C265.829,63.794 265.856,65.445 265.872,65.584 C265.979,66.52 266.435,67.025 267.257,67.567 C269.416,68.991 271.767,69.351 274.306,68.884 C279.374,67.951 283.72,65.33 287.589,62.19 C291.772,58.795 295.604,54.563 297.248,49.476 C298.648,45.144 298.559,39.334 294.487,36.29 C288.626,31.909 277.373,33.292 272.292,38.193 C265.603,44.643 266.732,55.488 265.642,63.774 C265.698,63.78 265.854,62.16 265.884,61.997 C265.776,62.581 265.719,63.187 265.642,63.774 C265.824,63.794 266.172,59.741 265.642,63.774 Z"
				id="Shape" stroke="#010202"></path>
			<path
				d="M89.586,60.763 C87.797,54.192 98.186,55.482 98.411,60.868 C98.716,68.196 88.227,65.211 89.586,60.763"
				id="Shape" stroke="#010202"></path>
			<path
				d="M233.354,9.644 C241.789,10.343 252.624,14.814 259.06,19.131 C262.844,21.669 267.625,25.24 263.499,28.49 C261.275,30.242 254.961,29.52 255.8,26.263 C257.291,20.476 236.842,15.176 231.311,16.32 C227.01,17.209 223.457,15.263 223.01,11.873 C222.482,7.87 229.802,9.54 233.354,9.644 C240.308,10.22 231.239,9.582 233.354,9.644 Z"
				id="Shape"></path>
			<path
				d="M99.279,6.36 C97.357,9.013 86.912,9.334 83.059,10.489 C77.662,12.106 71.864,13.662 67.748,16.761 C63.749,19.771 60.13,24.055 60.157,28.375 C60.189,33.539 55.269,36.298 50.972,30.528 C44.832,22.285 57.483,12.244 66.441,8.33 C74.924,4.624 92.925,-2.437 99.279,6.36 C98.483,7.459 98.931,5.878 99.279,6.36 Z"
				id="Shape"></path>
			<path
				d="M378.499,64.932 C382.177,66.154 385.767,67.703 389.337,69.306 C392.161,54.063 406.028,45.25 416.759,38.95 C432.134,29.924 441.412,33.285 449.85,49.932 C452.129,46.854 450.839,41.152 451.728,37.467 C452.535,34.124 465.236,35.494 468.07,35.182 C476.872,34.214 497.061,35.784 501.794,47.243 C504.538,46.496 501.808,40.682 504.357,39.536 C512.582,35.838 508.712,48.464 508.302,51.562 C513.648,51.483 516.911,44.678 521.959,43.387 C528.53,41.707 534.558,37.775 541.255,36.669 C552.845,34.755 569.718,42.793 570.182,58.953 C571.212,94.817 525.871,102.36 506.997,85.796 C503.973,88.229 515.52,100.315 505.91,98.303 C497.618,96.567 500.473,78.986 498.647,72.511 C495.133,73.617 490.654,82.264 487.775,84.905 C482.531,89.713 476.029,94.253 469.228,94.535 C465.795,94.677 454.421,96.264 451.892,93.262 C449.739,90.706 451.473,86.575 449.796,83.963 C447.051,87.692 446.022,97.174 440.275,91.442 C437.384,88.558 445.449,79.029 446.286,74.323 C448.069,64.296 447.239,65.073 439.148,65.835 C428.509,66.837 416.371,67.952 406.178,63.314 C399.943,60.477 393.7,63.74 396.716,73.345 C397.618,76.217 410.323,91.943 401.368,91.626 C395.297,91.411 396.128,88.732 396.849,84.195 C397.814,78.125 386.614,72.172 382.976,70.721 C375.836,67.872 364.465,68.071 357.197,70.794 C353.86,72.045 356.518,87.512 356.909,90.92 C357.609,97.014 352.659,102.865 350.591,94.276 C348.136,84.079 349.698,69.997 350.439,59.583 C351.095,50.36 350.354,39.194 358.403,34.603 C365.011,30.834 373.198,29.994 380.369,31.398 C385.784,32.459 392.169,35.422 393.818,42.366 C396.394,53.231 384.802,60.545 378.499,64.932 C379.703,64.908 379.703,64.908 378.499,64.932 C382.254,66.18 379.323,64.358 378.499,64.932 Z M564.164,59.254 C562.23,42.364 548.274,37.068 535.623,42.47 C530.607,44.611 526.76,48.171 521.41,50.323 C514.752,53.001 507.784,60.662 508.647,69.731 C512.149,106.56 561.301,89.121 564.164,59.254 C564.202,59.587 564.059,60.634 563.956,61.094 C564.025,60.48 564.094,59.867 564.164,59.254 C563.424,52.798 563.712,63.97 564.164,59.254 Z M498.586,54.154 C500.489,38.639 473.282,39.962 466.506,40.622 C452.346,42 454.584,64.42 455.044,76.862 C456.274,110.082 498.672,74.769 498.668,54.178 C498.64,55.561 498.613,55.553 498.586,54.154 C499.24,48.817 498.586,57.282 498.586,54.154 Z M356.344,64.736 C366.613,62.55 374.129,64.035 382.398,54.976 C387.776,49.084 391.374,39.256 381.959,35.963 C364.428,29.831 353.432,46.497 356.344,64.736 C360.466,63.859 356.22,63.955 356.344,64.736 Z M445.812,56.975 C441.749,29.495 422.809,39.407 408.594,51.216 C398.584,59.532 416.057,61.859 421.463,62.024 C425.961,62.161 434.914,63.494 438.772,60.106 C441.247,57.932 443.693,57.128 445.812,56.975 C445.099,52.153 445.251,57.016 445.812,56.975 Z"
				id="Shape" stroke="#010202" stroke-width="2"></path>
			<path
				d="M240.733,62.922 C240.075,68.431 230.547,68.335 231.707,62.478 C232.194,60.017 234.632,58.494 237.204,58.908 C238.24,59.075 239.233,59.56 239.895,60.35 C240.551,61.133 240.26,63.188 240.641,63.566 C240.57,63.496 240.761,62.109 240.733,62.922 C240.055,68.601 240.776,61.657 240.733,62.922 Z"
				id="Shape" stroke="#010202"></path>
			<path
				d="M491.94,2.035 C500.081,-0.281 511.796,0.09 519.341,1.864 C523.777,2.907 529.509,4.566 526.791,9.061 C525.326,11.484 522.642,10.875 518.801,9.687 C513.092,7.921 497.154,5.984 492.379,9.002 C488.666,11.349 484.656,10.778 483.043,7.762 C481.14,4.202 488.58,3.188 491.94,2.035 C498.652,0.125 489.939,2.721 491.94,2.035 Z"
				id="Shape"></path>
			<path
				d="M498.177,15.299 C502.441,14.047 508.635,14.453 512.648,15.63 C515.008,16.322 518.062,17.401 516.697,20.037 C515.961,21.458 514.729,22.504 512.486,20.284 C510.011,17.834 500.993,17.735 498.518,19.459 C496.594,20.799 494.466,20.396 493.567,18.573 C492.507,16.421 496.421,15.934 498.177,15.299 C501.693,14.267 497.131,15.677 498.177,15.299 Z"
				id="Shape" stroke="#010202"></path>
			<path
				d="M511.081,27.129 C510.415,27.415 508.858,26.332 508.132,26.126 C507.115,25.838 506.049,25.494 505,25.624 C503.981,25.75 502.831,26.156 502.203,26.968 C501.452,27.939 500.337,27.917 500.56,26.365 C500.878,24.148 504.177,23.653 506.044,23.901 C507.814,24.137 511.45,24.785 511.081,27.129 C510.806,27.248 511.102,27.001 511.081,27.129 Z"
				id="Shape" stroke="#010202" stroke-width="3"></path>
		</g>
	</g>
</svg>